<svg xmlns="http://www.w3.org/2000/svg" width="948.627" height="109.949" viewBox="0 0 948.627 109.949">
  <g id="Group_1" data-name="Group 1" transform="translate(-138.846 -146.41)">
    <path id="Path_1" data-name="Path 1" d="M1.846,53.974V47.887l6.67-.648L10.394,45.1V-.942H1.846V-5.993l8.548-3.95a39.653,39.653,0,0,1,3.335-16.837,31.813,31.813,0,0,1,10.135-12.24A30.022,30.022,0,0,1,31.6-43.133a24.756,24.756,0,0,1,8.322-1.457q5.7,0,9.1,2.655a8.508,8.508,0,0,1,3.4,7.059,6.849,6.849,0,0,1-1.975,4.825,13.941,13.941,0,0,1-5.731,3.4l-12.887-11.4a16.81,16.81,0,0,0-3.886,7.706,50.883,50.883,0,0,0-1.3,12.434v9H44.716V-.942H26.649V45.232l2.137,2.008,8.872.648v6.087Zm58.9-66.184h6.346V28.912q0,7.9,2.947,11.365t9.682,3.465a29.088,29.088,0,0,0,5.019-.486A55.694,55.694,0,0,0,91.12,41.67V-.683H82.507v-5.31l18.845-6.217h6.087v57.7l1.813,2.008,6.929.518v5.958H91.12V46.656a64.23,64.23,0,0,1-12.207,6.508,28.724,28.724,0,0,1-10.07,1.975q-9.2,0-13.7-5.569t-4.5-17.1V-.683H42.033v-5.31ZM118.68,53.974V48.016l6.8-.518,1.878-2.008V-.294h-9.066V-5.6l19.1-6.217h6.411v7.836a88.656,88.656,0,0,1,13.081-6.152,29.459,29.459,0,0,1,9.584-1.943q9.066,0,13.535,5.44t4.468,16.578V45.491l1.749,2.008,6.994.518v5.958H160.773V48.016l5.7-.518,1.813-2.008V13.758q0-7.383-2.849-10.847T156.37-.553a30.8,30.8,0,0,0-5.537.583q-3.141.583-7.026,1.684V45.491l1.813,2.008,5.828.518v5.958Zm133.7-5.958a60.864,60.864,0,0,1-12.693,5.278,45.841,45.841,0,0,1-12.369,1.716q-14.247,0-23.022-9t-8.775-23.572q0-15.089,9.617-24.738t24.576-9.649q9.779,0,15.834,4.047T251.6,2.49A8.6,8.6,0,0,1,248.915,9a9.51,9.51,0,0,1-6.832,2.558,13.563,13.563,0,0,1-4.177-.615,12.65,12.65,0,0,1-3.659-1.91V-5.022a17.753,17.753,0,0,0-1.91-.356,12.346,12.346,0,0,0-1.457-.1q-7.383,0-12.369,6.962T213.524,19.2q0,11.786,5.5,18.586t14.959,6.8a28.779,28.779,0,0,0,8.937-1.522,43.618,43.618,0,0,0,9.455-4.5ZM261.158-.942h-8.613V-5.993l9.779-5.569,6.929-13.794h8.354V-8.907h19.622V-.942H277.607V32.085q0,7.447,2.4,10.167t8.613,2.72a42.781,42.781,0,0,0,4.566-.227,33.666,33.666,0,0,0,4.047-.68v6.346a78.618,78.618,0,0,1-10.847,3.141,46.674,46.674,0,0,1-9.422,1.069,24.232,24.232,0,0,1-6.185-.712,15.145,15.145,0,0,1-4.825-2.2,9.5,9.5,0,0,1-3.724-4.371q-1.069-2.623-1.069-9.682Zm55.276-10.88h6.411V45.491l1.943,2.008,7.447.518v5.958H297.46V48.016l7.188-.518,1.878-2.008V-.294h-8.743V-5.6Zm-1.425-30.243a9.707,9.707,0,0,1,7.124,2.752,9.377,9.377,0,0,1,2.785,6.962,9.9,9.9,0,0,1-2.752,7.221,9.4,9.4,0,0,1-7.026,2.817A9.406,9.406,0,0,1,308.21-25.1a9.485,9.485,0,0,1-2.785-6.994,9.846,9.846,0,0,1,2.752-7.124A9.115,9.115,0,0,1,315.009-42.064ZM368.731-5.151q-7.253,0-11.333,6.929t-4.08,19.428q0,12.693,4.047,19.752T368.6,48.016q7.512,0,11.592-6.865t4.08-19.557q0-12.628-4.112-19.687T368.731-5.151Zm.518-7.059q15.283,0,24.285,9.228t9,24.965q0,14.895-9.39,23.961T368.213,55.01q-14.959,0-24.123-9.163t-9.163-24.123q0-15.348,9.39-24.641T369.249-12.21Zm37.4,66.184V48.016l6.8-.518,1.878-2.008V-.294h-9.066V-5.6l19.1-6.217h6.411v7.836a88.658,88.658,0,0,1,13.081-6.152,29.459,29.459,0,0,1,9.584-1.943q9.066,0,13.535,5.44t4.468,16.578V45.491L474.2,47.5l6.994.518v5.958H448.746V48.016l5.7-.518,1.813-2.008V13.758q0-7.383-2.849-10.847T444.342-.553A30.8,30.8,0,0,0,438.8.029q-3.141.583-7.026,1.684V45.491l1.813,2.008,5.828.518v5.958ZM531.221-9.037V8.642h-7.965l-1.3-9.973L520.341-2.82a22.371,22.371,0,0,0-4.4-1.554,18.9,18.9,0,0,0-4.339-.518q-4.792,0-7.447,2.1A7.059,7.059,0,0,0,501.5,3.073a7.7,7.7,0,0,0,2.072,5.375q2.072,2.267,10.3,6.282l.259.13q19.1,9.2,19.1,18.715,0,10.167-7.221,16.028t-19.849,5.861a68.458,68.458,0,0,1-10.394-.842A98.351,98.351,0,0,1,484.27,52.1V32.474h7.965l1.554,11.4,1.36,1.489a24.7,24.7,0,0,0,5.375,2.072,23.164,23.164,0,0,0,5.764.712q5.245,0,8.257-2.558a8.73,8.73,0,0,0,3.011-7.026q0-5.634-11.462-10.815Q502.208,26,500.071,24.9q-8.224-4.08-11.56-8.063a14.212,14.212,0,0,1-3.335-9.423A17.177,17.177,0,0,1,492.268-6.9q7.091-5.44,18.942-5.44a61.922,61.922,0,0,1,20.011,3.3Zm6.966,63.011V48.016l6.8-.518,1.878-2.008V-.294H537.8V-5.6l19.1-6.217h6.411v7.836a88.656,88.656,0,0,1,13.081-6.152,29.46,29.46,0,0,1,9.584-1.943q9.066,0,13.535,5.44t4.468,16.578V45.491L605.73,47.5l6.994.518v5.958H580.28V48.016l5.7-.518,1.813-2.008V13.758q0-7.383-2.849-10.847T575.876-.553a30.8,30.8,0,0,0-5.537.583q-3.141.583-7.026,1.684V45.491l1.813,2.008,5.828.518v5.958ZM662.755-9.037V8.642h-7.965l-1.3-9.973L651.875-2.82a22.374,22.374,0,0,0-4.4-1.554,18.9,18.9,0,0,0-4.339-.518q-4.792,0-7.447,2.1a7.059,7.059,0,0,0-2.655,5.861A7.7,7.7,0,0,0,635.1,8.448q2.072,2.267,10.3,6.282l.259.13q19.1,9.2,19.1,18.715,0,10.167-7.221,16.028t-19.849,5.861a68.459,68.459,0,0,1-10.394-.842A98.356,98.356,0,0,1,615.8,52.1V32.474h7.965l1.554,11.4,1.36,1.489a24.7,24.7,0,0,0,5.375,2.072,23.164,23.164,0,0,0,5.764.712q5.246,0,8.257-2.558a8.73,8.73,0,0,0,3.011-7.026q0-5.634-11.462-10.815Q633.743,26,631.606,24.9q-8.224-4.08-11.56-8.063a14.212,14.212,0,0,1-3.335-9.423A17.177,17.177,0,0,1,623.8-6.9q7.091-5.44,18.942-5.44a61.922,61.922,0,0,1,20.011,3.3ZM676.779-.942h-8.613V-5.993l9.779-5.569,6.929-13.794h8.354V-8.907H712.85V-.942H693.228V32.085q0,7.447,2.4,10.167t8.613,2.72a42.782,42.782,0,0,0,4.566-.227,33.666,33.666,0,0,0,4.047-.68v6.346A78.616,78.616,0,0,1,702,53.553a46.674,46.674,0,0,1-9.423,1.069,24.232,24.232,0,0,1-6.185-.712,15.145,15.145,0,0,1-4.825-2.2,9.5,9.5,0,0,1-3.724-4.371q-1.069-2.623-1.069-9.682ZM730.89-12.21h6.346V28.912q0,7.9,2.947,11.365t9.682,3.465a29.088,29.088,0,0,0,5.019-.486,55.694,55.694,0,0,0,6.379-1.587V-.683h-8.613v-5.31l18.845-6.217h6.087v57.7l1.813,2.008,6.929.518v5.958H761.262V46.656a64.23,64.23,0,0,1-12.207,6.508,28.724,28.724,0,0,1-10.07,1.975q-9.2,0-13.7-5.569t-4.5-17.1V-.683h-8.613v-5.31Zm57.931,66.184V47.887l6.67-.648,1.878-2.137V-.942h-8.548V-5.993l8.548-3.95A39.653,39.653,0,0,1,800.7-26.781a31.813,31.813,0,0,1,10.135-12.24,30.022,30.022,0,0,1,7.739-4.112A24.756,24.756,0,0,1,826.9-44.59q5.7,0,9.1,2.655a8.508,8.508,0,0,1,3.4,7.059,6.849,6.849,0,0,1-1.975,4.825,13.941,13.941,0,0,1-5.731,3.4L818.8-38.049a16.811,16.811,0,0,0-3.886,7.706,50.883,50.883,0,0,0-1.3,12.434v9h18.068V-.942H813.624V45.232l2.137,2.008,8.872.648v6.087Zm41.223,0V47.887l6.67-.648,1.878-2.137V-.942h-8.548V-5.993l8.548-3.95a39.654,39.654,0,0,1,3.335-16.837,31.813,31.813,0,0,1,10.135-12.24,30.021,30.021,0,0,1,7.739-4.112,24.757,24.757,0,0,1,8.322-1.457q5.7,0,9.1,2.655a8.508,8.508,0,0,1,3.4,7.059,6.849,6.849,0,0,1-1.975,4.825,13.941,13.941,0,0,1-5.731,3.4l-12.887-11.4a16.81,16.81,0,0,0-3.886,7.706,50.883,50.883,0,0,0-1.3,12.434v9h18.068V-.942H854.847V45.232l2.137,2.008,8.872.648v6.087Z" transform="translate(137 191)" fill="#ffe5fb"/>
    <path id="Path_2" data-name="Path 2" d="M66.314,9.111V20.25H0V9.111Z" transform="translate(1021.159 236.109)" fill="#f8a"/>
  </g>
</svg>
