<svg xmlns="http://www.w3.org/2000/svg" width="339.415" height="71.083" viewBox="0 0 339.415 71.083">
  <path id="Path_1" data-name="Path 1" d="M-75.534-55.487H-86.427V-72.645l10.7-18.53c-.023.417-.036.862-.036,1.324a14.822,14.822,0,0,0,2.16,8.425,6.977,6.977,0,0,0,6.1,3.182,6.921,6.921,0,0,0,6.136-3.234,15.077,15.077,0,0,0,2.122-8.374,14.834,14.834,0,0,0-2.11-8.3,6.943,6.943,0,0,0-6.149-3.183,8.193,8.193,0,0,0-2.585.392l5.219-9.04c.279-.013.562-.019.843-.019a14.81,14.81,0,0,1,7.926,2.237,15.84,15.84,0,0,1,5.791,6.725A25.71,25.71,0,0,1-48.126-89.8a26.065,26.065,0,0,1-2.122,11.084,15.94,15.94,0,0,1-5.727,6.826,14.709,14.709,0,0,1-8.08,2.314,12.547,12.547,0,0,1-5.382-1.049,10.937,10.937,0,0,1-3.605-2.646A14.071,14.071,0,0,1-75.2-76.5h-.332v21.017ZM37.609-69.448A20.943,20.943,0,0,1,27.2-71.914a16.751,16.751,0,0,1-6.725-7.006,23.188,23.188,0,0,1-2.352-10.751,23.074,23.074,0,0,1,2.352-10.637,17.443,17.443,0,0,1,6.636-7.133A19.342,19.342,0,0,1,37.175-110a19.9,19.9,0,0,1,9.37,2.2,16.125,16.125,0,0,1,6.636,6.635,22.827,22.827,0,0,1,2.454,11.109v2.992H28.891v.026a9.7,9.7,0,0,0,2.4,6.929,8.569,8.569,0,0,0,6.494,2.531,9.35,9.35,0,0,0,4.73-1.15,6.291,6.291,0,0,0,2.813-3.4l10.074.665a13.866,13.866,0,0,1-5.829,8.744C46.471-70.549,42.445-69.448,37.609-69.448Zm-.256-32.421A8.057,8.057,0,0,0,31.4-99.516a8.53,8.53,0,0,0-2.506,5.7H45.383a8.05,8.05,0,0,0-2.25-5.778A7.756,7.756,0,0,0,37.354-101.868ZM-28.392-69.448A20.938,20.938,0,0,1-38.8-71.914a16.751,16.751,0,0,1-6.725-7.006,23.188,23.188,0,0,1-2.352-10.751,23.074,23.074,0,0,1,2.352-10.637,17.447,17.447,0,0,1,6.635-7.133A19.346,19.346,0,0,1-28.827-110a19.9,19.9,0,0,1,9.371,2.2,16.118,16.118,0,0,1,6.635,6.635,22.817,22.817,0,0,1,2.455,11.109v2.992H-37.111v.026a9.7,9.7,0,0,0,2.4,6.929,8.569,8.569,0,0,0,6.494,2.531,9.35,9.35,0,0,0,4.73-1.15,6.291,6.291,0,0,0,2.813-3.4l10.074.665a13.865,13.865,0,0,1-5.829,8.744C-19.531-70.549-23.557-69.448-28.392-69.448Zm-.256-32.421A8.054,8.054,0,0,0-34.6-99.516a8.522,8.522,0,0,0-2.506,5.7h16.492a8.053,8.053,0,0,0-2.25-5.778A7.756,7.756,0,0,0-28.648-101.868ZM-135.354-69.448a20.054,20.054,0,0,1-10.368-2.569,17.167,17.167,0,0,1-6.648-7.146A23.143,23.143,0,0,1-154.684-89.7a23.024,23.024,0,0,1,2.34-10.6,17.379,17.379,0,0,1,6.66-7.133A19.831,19.831,0,0,1-135.4-110a20.637,20.637,0,0,1,9.013,1.867,15.006,15.006,0,0,1,6.111,5.242,15.542,15.542,0,0,1,2.467,7.926h-10.278a8.068,8.068,0,0,0-2.289-4.743,6.684,6.684,0,0,0-4.845-1.8,7.292,7.292,0,0,0-6.086,3.043c-1.526,2.019-2.3,4.918-2.3,8.617,0,3.733.77,6.662,2.288,8.706a7.252,7.252,0,0,0,6.1,3.081,6.9,6.9,0,0,0,4.729-1.7,7.845,7.845,0,0,0,2.4-4.845h10.278a16.231,16.231,0,0,1-2.442,7.925,14.826,14.826,0,0,1-6.021,5.332A20.282,20.282,0,0,1-135.354-69.448Zm34.22-.136h0a18.835,18.835,0,0,1-7.621-2.407,17.271,17.271,0,0,1-6.686-7.108,22.923,22.923,0,0,1-2.353-10.6,23.039,23.039,0,0,1,2.353-10.649,17.268,17.268,0,0,1,6.686-7.108A20.062,20.062,0,0,1-98.464-110a20.063,20.063,0,0,1,10.291,2.544,17.121,17.121,0,0,1,5.741,5.478l-7.811,13.528c.023-.419.036-.865.036-1.326A16.089,16.089,0,0,0-92.29-98.3a6.775,6.775,0,0,0-6.124-3.389,6.872,6.872,0,0,0-6.213,3.389,16.015,16.015,0,0,0-2.1,8.527,15.95,15.95,0,0,0,2.1,8.514,6.878,6.878,0,0,0,6.213,3.375,8,8,0,0,0,2.248-.3l-4.968,8.6Zm207.583-.63H95.558v-39.272h10.381v6.928h.46a11.238,11.238,0,0,1,4.385-5.432A13.293,13.293,0,0,1,118.211-110a14.8,14.8,0,0,1,5.53.988,12.025,12.025,0,0,1,4.315,2.963,12.868,12.868,0,0,1,2.78,4.682,19.01,19.01,0,0,1,.927,6.146v25H120.87V-93.277a7.966,7.966,0,0,0-1.841-5.638,6.656,6.656,0,0,0-5.139-2.033,7.182,7.182,0,0,0-5.357,2.11,8.24,8.24,0,0,0-2.083,5.919v22.7Zm-302.211,0h-10.892v-39.272h10.381v6.928h.461a11.228,11.228,0,0,1,4.385-5.432A13.288,13.288,0,0,1-184-110a14.8,14.8,0,0,1,5.529.988,12.025,12.025,0,0,1,4.314,2.963,12.867,12.867,0,0,1,2.78,4.682,19.009,19.009,0,0,1,.927,6.146v25h-10.892V-93.277a7.97,7.97,0,0,0-1.84-5.638,6.659,6.659,0,0,0-5.14-2.033,7.178,7.178,0,0,0-5.356,2.11,8.237,8.237,0,0,0-2.084,5.919v22.7Zm288.026,0H81.373v-39.272H92.264Zm-24.029,0H57.344v-39.272H67.9v6.852h.409a10.256,10.256,0,0,1,3.605-5.535,9.562,9.562,0,0,1,5.829-1.879,14.829,14.829,0,0,1,3.426.383V-100a11.478,11.478,0,0,0-2.122-.421,20.633,20.633,0,0,0-2.48-.166,8.325,8.325,0,0,0-5.97,2.263,7.82,7.82,0,0,0-2.365,5.893v22.218Zm-51.817,0H5.527v-52.364H16.419Zm-14.185,0H-8.659v-52.364H2.234Zm-158.625,0h-10.893v-39.272h10.893ZM86.844-114.549a5.889,5.889,0,0,1-4.142-1.624,5.171,5.171,0,0,1-1.739-3.9,5.129,5.129,0,0,1,1.739-3.886,5.912,5.912,0,0,1,4.142-1.611,5.945,5.945,0,0,1,4.168,1.611,5.129,5.129,0,0,1,1.739,3.886,5.171,5.171,0,0,1-1.739,3.9A5.921,5.921,0,0,1,86.844-114.549Zm-248.656,0a5.889,5.889,0,0,1-4.142-1.624,5.171,5.171,0,0,1-1.739-3.9,5.129,5.129,0,0,1,1.739-3.886,5.913,5.913,0,0,1,4.142-1.611,5.945,5.945,0,0,1,4.168,1.611,5.129,5.129,0,0,1,1.738,3.886,5.171,5.171,0,0,1-1.738,3.9A5.921,5.921,0,0,1-161.812-114.549Z" transform="translate(207.153 126.07)" fill="#f4f4f4" stroke="rgba(0,0,0,0)" stroke-width="1"/>
</svg>
