<svg xmlns="http://www.w3.org/2000/svg" width="358.392" height="190.716"><g><path d="M 27.364 159.455 L 16.068 190 L 11.291 190 L 0 159.455 L 5.091 159.455 L 13.523 183.8 L 13.841 183.8 L 22.273 159.459 Z M 35.477 190 L 35.477 159.455 L 40.171 159.455 L 40.171 190 Z M 37.863 154.364 C 36.984 154.379 36.136 154.042 35.506 153.429 C 34.872 152.855 34.513 152.037 34.522 151.182 C 34.513 150.327 34.872 149.509 35.506 148.935 C 36.136 148.322 36.985 147.985 37.864 148 C 38.743 147.985 39.591 148.322 40.221 148.935 C 40.855 149.509 41.214 150.327 41.205 151.182 C 41.214 152.037 40.855 152.855 40.221 153.429 C 39.591 154.042 38.743 154.379 37.864 154.364 Z M 48.761 190 L 48.761 159.455 L 53.291 159.455 L 53.291 164.069 L 53.609 164.069 C 54.18 162.541 55.243 161.246 56.632 160.39 C 58.102 159.445 59.817 158.954 61.564 158.978 C 61.909 158.978 62.34 158.985 62.857 158.998 C 63.374 159.011 63.765 159.031 64.03 159.058 L 64.03 163.831 C 63.871 163.791 63.509 163.728 62.946 163.642 C 62.357 163.554 61.762 163.511 61.166 163.513 C 59.129 163.442 57.146 164.17 55.638 165.541 C 54.198 166.852 53.4 168.725 53.451 170.672 L 53.451 190 Z M 84.791 159.455 L 84.791 163.432 L 78.273 163.432 L 78.273 181.25 C 78.208 182.275 78.411 183.299 78.86 184.223 C 79.19 184.827 79.726 185.293 80.371 185.536 C 81 185.757 81.663 185.868 82.33 185.864 C 82.756 185.871 83.182 185.841 83.603 185.775 C 83.936 185.716 84.203 185.666 84.403 185.626 L 85.358 189.842 C 84.923 189.994 84.478 190.117 84.026 190.21 C 83.31 190.35 82.581 190.414 81.852 190.4 C 80.51 190.396 79.184 190.105 77.964 189.545 C 76.7 188.977 75.614 188.077 74.822 186.94 C 73.953 185.636 73.518 184.091 73.579 182.525 L 73.579 163.432 L 68.966 163.432 L 68.966 159.455 L 73.58 159.455 L 73.58 152.137 L 78.273 152.137 L 78.273 159.455 Z M 111.121 177.512 L 111.121 159.455 L 115.814 159.455 L 115.814 190 L 111.121 190 L 111.121 184.83 L 110.803 184.83 C 110.057 186.417 108.904 187.779 107.462 188.777 C 105.774 189.91 103.77 190.479 101.739 190.4 C 99.085 190.485 96.517 189.453 94.659 187.556 C 92.803 185.66 91.875 182.763 91.875 178.866 L 91.875 159.455 L 96.568 159.455 L 96.568 178.546 C 96.469 180.501 97.144 182.416 98.447 183.876 C 99.688 185.197 101.436 185.921 103.247 185.865 C 104.49 185.846 105.712 185.54 106.817 184.97 C 108.064 184.344 109.121 183.397 109.88 182.226 C 110.759 180.815 111.193 179.172 111.125 177.511 Z M 133.398 190.716 C 131.582 190.742 129.782 190.367 128.128 189.616 C 126.6 188.923 125.297 187.814 124.369 186.416 C 123.408 184.9 122.923 183.13 122.977 181.335 C 122.911 179.844 123.27 178.365 124.011 177.069 C 124.691 175.984 125.644 175.096 126.775 174.494 C 127.98 173.853 129.268 173.381 130.603 173.094 C 132.003 172.783 133.412 172.534 134.829 172.348 C 136.685 172.109 138.193 171.927 139.353 171.801 C 140.235 171.75 141.099 171.531 141.898 171.155 C 142.45 170.823 142.763 170.205 142.703 169.564 L 142.703 169.4 C 142.806 167.722 142.23 166.074 141.103 164.826 C 139.779 163.645 138.03 163.056 136.261 163.195 C 134.39 163.087 132.535 163.605 130.991 164.667 C 129.857 165.483 128.936 166.561 128.306 167.809 L 123.851 166.218 C 124.528 164.522 125.627 163.026 127.043 161.873 C 128.336 160.852 129.825 160.108 131.418 159.686 C 132.945 159.276 134.52 159.066 136.101 159.06 C 137.239 159.076 138.374 159.192 139.492 159.408 C 140.807 159.654 142.067 160.135 143.211 160.83 C 144.482 161.622 145.516 162.741 146.204 164.071 C 147.079 165.877 147.489 167.873 147.397 169.878 L 147.397 190 L 142.704 190 L 142.704 185.864 L 142.465 185.864 C 142.053 186.655 141.516 187.373 140.874 187.992 C 140.021 188.82 139.015 189.475 137.912 189.92 C 136.477 190.488 134.941 190.759 133.398 190.716 Z M 134.114 186.5 C 135.749 186.552 137.37 186.175 138.814 185.406 C 140.02 184.747 141.023 183.77 141.714 182.582 C 142.357 181.477 142.697 180.222 142.698 178.943 L 142.698 174.643 C 142.331 174.971 141.881 175.194 141.398 175.289 C 140.64 175.502 139.869 175.668 139.091 175.789 C 138.224 175.928 137.382 176.048 136.565 176.147 C 135.748 176.246 135.09 176.331 134.591 176.4 C 133.432 176.545 132.29 176.802 131.18 177.166 C 130.212 177.464 129.336 178.005 128.635 178.737 C 127.96 179.522 127.615 180.537 127.671 181.571 C 127.588 183.035 128.279 184.435 129.491 185.26 C 130.87 186.134 132.483 186.567 134.114 186.5 Z M 160.682 149.273 L 160.682 190 L 155.991 190 L 155.991 149.273 Z M 182.159 190.6 C 179.338 190.679 176.549 189.987 174.091 188.6 C 171.864 187.289 170.067 185.358 168.921 183.042 C 167.681 180.492 167.064 177.684 167.121 174.849 C 167.059 171.995 167.683 169.168 168.941 166.606 C 170.1 164.298 171.898 162.372 174.121 161.058 C 176.554 159.676 179.318 158.984 182.115 159.058 C 184.531 159.005 186.928 159.502 189.125 160.51 C 191.053 161.408 192.697 162.818 193.878 164.587 C 195.067 166.429 195.731 168.561 195.797 170.752 L 187.803 170.752 C 187.641 169.357 187.014 168.058 186.023 167.063 C 185.007 166.108 183.648 165.603 182.255 165.663 C 180.383 165.618 178.61 166.504 177.522 168.029 C 176.213 170.009 175.585 172.361 175.732 174.729 C 175.585 177.118 176.209 179.492 177.512 181.5 C 178.59 183.045 180.372 183.946 182.255 183.9 C 183.604 183.94 184.919 183.467 185.934 182.578 C 186.986 181.585 187.648 180.248 187.803 178.81 L 195.797 178.81 C 195.71 180.995 195.055 183.12 193.897 184.975 C 192.75 186.764 191.129 188.199 189.214 189.121 C 187.009 190.154 184.594 190.661 182.159 190.6 Z M 209.959 190.58 C 207.348 190.678 204.783 189.87 202.7 188.293 C 200.779 186.764 199.818 184.49 199.818 181.469 C 199.706 179.546 200.277 177.644 201.429 176.1 C 202.544 174.773 204.008 173.784 205.655 173.246 C 207.48 172.626 209.373 172.228 211.293 172.063 C 213.205 171.911 215.106 171.632 216.981 171.228 C 218.121 170.937 218.691 170.3 218.691 169.319 L 218.691 169.2 C 218.756 168.097 218.322 167.024 217.508 166.277 C 216.555 165.534 215.363 165.166 214.157 165.243 C 212.869 165.175 211.593 165.524 210.518 166.237 C 209.651 166.851 209.02 167.742 208.728 168.763 L 200.893 168.127 C 201.416 165.435 202.977 163.056 205.238 161.505 C 207.896 159.775 211.029 158.92 214.197 159.059 C 216.365 159.042 218.519 159.406 220.561 160.133 C 222.438 160.78 224.095 161.941 225.344 163.484 C 226.617 165.186 227.26 167.277 227.164 169.4 L 227.164 190 L 219.13 190 L 219.13 185.764 L 218.891 185.764 C 218.124 187.208 216.971 188.409 215.56 189.234 C 213.852 190.187 211.915 190.652 209.96 190.577 Z M 212.391 184.73 C 214.067 184.795 215.704 184.215 216.965 183.109 C 218.128 182.097 218.783 180.623 218.755 179.082 L 218.755 175.841 C 218.279 176.126 217.758 176.329 217.214 176.441 C 216.518 176.614 215.776 176.763 214.987 176.888 C 214.198 177.013 213.492 177.123 212.869 177.216 C 211.593 177.354 210.365 177.782 209.28 178.469 C 208.381 179.076 207.864 180.109 207.918 181.193 C 207.857 182.233 208.334 183.232 209.181 183.838 C 210.131 184.465 211.254 184.777 212.391 184.73 Z M 242.221 172.341 L 242.221 190 L 233.749 190 L 233.749 159.455 L 241.823 159.455 L 241.823 164.844 L 242.181 164.844 C 242.838 163.107 244.033 161.627 245.592 160.618 C 247.321 159.537 249.331 158.994 251.369 159.057 C 254.244 158.932 257.034 160.051 259.025 162.129 C 260.948 164.177 261.909 166.984 261.909 170.551 L 261.909 190 L 253.437 190 L 253.437 172.063 C 253.544 170.471 253.031 168.9 252.005 167.678 C 250.966 166.593 249.505 166.016 248.005 166.097 C 246.448 166.036 244.936 166.632 243.839 167.738 C 242.709 168.997 242.126 170.652 242.216 172.341 Z M 295.934 159.455 L 285.25 190 L 275.705 190 L 265.026 159.455 L 273.975 159.455 L 280.318 181.31 L 280.636 181.31 L 286.96 159.455 Z M 308.497 190.577 C 305.886 190.675 303.321 189.867 301.238 188.29 C 299.316 186.763 298.355 184.49 298.355 181.469 C 298.243 179.546 298.814 177.644 299.966 176.1 C 301.081 174.773 302.545 173.784 304.192 173.246 C 306.017 172.626 307.91 172.228 309.83 172.063 C 311.742 171.911 313.643 171.632 315.518 171.228 C 316.658 170.937 317.228 170.3 317.228 169.319 L 317.228 169.2 C 317.293 168.097 316.859 167.024 316.045 166.277 C 315.092 165.534 313.9 165.166 312.694 165.243 C 311.406 165.175 310.13 165.524 309.055 166.237 C 308.188 166.851 307.557 167.742 307.265 168.763 L 299.43 168.127 C 299.953 165.435 301.514 163.056 303.775 161.505 C 306.433 159.775 309.566 158.92 312.734 159.059 C 314.902 159.042 317.056 159.406 319.098 160.133 C 320.975 160.78 322.632 161.941 323.881 163.484 C 325.154 165.186 325.797 167.277 325.701 169.4 L 325.701 190 L 317.667 190 L 317.667 185.764 L 317.428 185.764 C 316.66 187.208 315.504 188.41 314.091 189.234 C 312.385 190.186 310.45 190.651 308.497 190.577 Z M 310.923 184.73 C 312.599 184.795 314.236 184.215 315.497 183.109 C 316.66 182.097 317.315 180.623 317.287 179.082 L 317.287 175.841 C 316.811 176.126 316.29 176.329 315.746 176.441 C 315.05 176.614 314.308 176.763 313.519 176.888 C 312.73 177.013 312.024 177.123 311.401 177.216 C 310.124 177.353 308.896 177.782 307.811 178.469 C 306.912 179.076 306.395 180.109 306.449 181.193 C 306.388 182.233 306.865 183.232 307.712 183.838 C 308.662 184.465 309.786 184.777 310.923 184.73 Z M 357.696 168.165 L 349.94 168.642 C 349.714 167.638 349.144 166.745 348.329 166.116 C 347.321 165.367 346.083 164.994 344.829 165.062 C 343.664 165.024 342.511 165.31 341.498 165.887 C 340.669 166.305 340.148 167.158 340.156 168.087 C 340.138 168.805 340.458 169.49 341.021 169.936 C 341.917 170.57 342.949 170.985 344.034 171.149 L 349.562 172.263 C 355.435 173.47 358.379 176.227 358.392 180.536 C 358.424 182.442 357.803 184.302 356.632 185.806 C 355.364 187.388 353.701 188.605 351.81 189.336 C 349.576 190.214 347.191 190.643 344.791 190.6 C 340.748 190.6 337.526 189.755 335.126 188.064 C 332.789 186.48 331.256 183.957 330.926 181.153 L 339.258 180.716 C 339.461 181.868 340.125 182.888 341.097 183.54 C 342.212 184.218 343.502 184.55 344.806 184.495 C 346.061 184.553 347.307 184.25 348.395 183.62 C 349.219 183.176 349.745 182.328 349.777 181.393 C 349.737 179.882 348.431 178.867 345.859 178.35 L 340.569 177.296 C 334.656 176.116 331.713 173.206 331.739 168.566 C 331.64 165.793 332.973 163.164 335.269 161.606 C 337.636 159.909 340.774 159.061 344.685 159.061 C 348.543 159.061 351.582 159.876 353.803 161.507 C 355.988 163.072 357.403 165.493 357.696 168.165 Z" fill="hsl(0, 0%, 100%)"></path><path d="M 174.608 2.241 C 166.156 6.931 146.86 23.325 134.263 38.103 C 128.537 44.81 123.601 51.666 123.056 53.793 C 122.674 55.265 122.756 57.044 132.022 67.241 C 135.512 71.058 138.692 73.641 138.746 73.965 C 138.855 74.238 139.291 73.965 138.746 73.965 C 137.274 73.965 120.973 79.326 118.574 80.689 C 116.283 81.944 114.091 85.56 114.091 87.414 C 114.091 89.159 116.174 91.406 118.574 91.897 C 120.864 92.333 127.246 90.904 140.988 87.414 L 149.954 85.173 L 154.437 89.656 L 161.161 96.38 L 158.92 100.863 C 155.594 113.514 154.056 123.228 154.437 125.518 C 154.873 128.081 157.066 130.001 158.92 130.001 C 160.682 129.992 162.339 129.164 163.403 127.76 C 164.548 126.397 167.837 119.487 170.127 112.07 L 170.127 105.346 L 179.091 114.31 C 183.563 118.51 187.348 120.87 188.057 121.034 C 189.536 121.335 191.061 121.335 192.54 121.034 C 194.885 120.107 199.166 116.158 203.747 112.068 C 209.309 107.051 235.901 80.896 239.609 76.206 C 242.181 72.998 243.741 69.097 244.091 65 C 244.091 64.346 238.991 60.059 230.643 51.552 L 217.191 38.1 L 226.157 29.135 C 235.157 19.919 237.857 17.268 237.364 15.687 C 237.146 15.087 234.517 12.731 232.881 11.204 C 228.191 6.787 228.481 6.695 217.191 17.928 L 208.225 26.894 L 197.018 17.928 C 183.662 5.007 177.777 0 176.85 0 C 176.413 0 176.135 1.369 174.608 2.241 Z M 190.298 20.172 C 204.858 33.914 233.708 62.164 235.126 65 C 235.889 66.582 233.201 70.154 228.402 76.207 C 214.496 93.494 191.711 113.76 188.057 112.069 C 184.894 110.597 134.264 57.669 134.264 56.035 C 134.264 54.672 135.475 53.728 138.747 49.311 C 142.237 44.621 165.164 19.671 170.126 15.69 C 174.216 12.418 177.565 11.207 179.092 11.207 C 179.8 11.207 183.536 13.792 190.298 20.172 Z" fill="hsl(0, 0%, 100%)"></path></g></svg>